<?xml version="1.0" encoding="UTF-8" standalone="no"?>
<svg
   xmlns:dc="http://purl.org/dc/elements/1.1/"
   xmlns:cc="http://creativecommons.org/ns#"
   xmlns:rdf="http://www.w3.org/1999/02/22-rdf-syntax-ns#"
   xmlns:svg="http://www.w3.org/2000/svg"
   xmlns="http://www.w3.org/2000/svg"
   xmlns:sodipodi="http://sodipodi.sourceforge.net/DTD/sodipodi-0.dtd"
   xmlns:inkscape="http://www.inkscape.org/namespaces/inkscape"
   inkscape:version="1.0 (4035a4fb49, 2020-05-01)"
   sodipodi:docname="006.svg"
   viewBox="0 0 4279.3589 5373.1904"
   height="5373.1904"
   width="4279.3589"
   xml:space="preserve"
   id="svg2"
   version="1.1"><metadata
     id="metadata8"><rdf:RDF><cc:Work
         rdf:about=""><dc:format>image/svg+xml</dc:format><dc:type
           rdf:resource="http://purl.org/dc/dcmitype/StillImage" /><dc:title></dc:title></cc:Work></rdf:RDF></metadata><defs
     id="defs6"><clipPath
       id="clipPath18"
       clipPathUnits="userSpaceOnUse"><path
         id="path16"
         d="M 0,4200 H 13900 V 0 H 0 Z" /></clipPath></defs><sodipodi:namedview
     fit-margin-bottom="0"
     fit-margin-right="0"
     fit-margin-left="0"
     fit-margin-top="0"
     inkscape:current-layer="g10"
     inkscape:window-maximized="1"
     inkscape:window-y="32"
     inkscape:window-x="1912"
     inkscape:cy="8536.5343"
     inkscape:cx="11349.848"
     inkscape:zoom="0.030674463"
     showgrid="false"
     id="namedview4"
     inkscape:window-height="1017"
     inkscape:window-width="1920"
     inkscape:pageshadow="2"
     inkscape:pageopacity="0"
     guidetolerance="10"
     gridtolerance="10"
     objecttolerance="10"
     borderopacity="1"
     bordercolor="#666666"
     pagecolor="#ffffff" /><g
     transform="matrix(1.3333333,0,0,-1.3333333,-212.29839,5450.0675)"
     inkscape:label="005"
     inkscape:groupmode="layer"
     id="g10"><g
       id="g12"><g
         clip-path="url(#clipPath18)"
         id="g14"><g
           transform="translate(925,1089.6455)"
           id="g20"><path
             id="path22"
             style="fill:#000000;fill-opacity:1;fill-rule:nonzero;stroke:none"
             d="m 0,0 c -5.535,25.036 -6.72,51.132 -8.605,76.838 -1.253,17.082 -0.239,34.329 -0.239,51.501 -2.527,0.772 -5.052,1.548 -7.578,2.32 -2.732,-4.406 -7.017,-8.504 -7.954,-13.265 -9.097,-46.127 -23.502,-92.178 -24.97,-138.614 -2.266,-71.615 4.409,-143.512 7.423,-215.285 0.138,-3.268 1.806,-6.443 2.339,-9.728 4.338,-26.766 8.477,-53.564 12.872,-80.321 4.298,-26.162 9.037,-52.255 13.209,-78.435 6.448,-40.471 12.365,-81.025 18.967,-121.469 2.234,-13.687 4.677,-27.555 9.156,-40.609 5.795,-16.898 19.174,-26.472 37.029,-24.061 19.346,2.614 19.515,18.557 19.491,34.029 -0.038,25.368 0.269,50.752 1.222,76.099 1.721,45.757 9.266,92.02 4.729,137.101 C 71.742,-290.78 56.868,-238.524 44.8,-186.202 30.452,-123.997 13.776,-62.323 0,0" /></g><g
           transform="translate(416.3168,1581.1758)"
           id="g24"><path
             id="path26"
             style="fill:#000000;fill-opacity:1;fill-rule:nonzero;stroke:none"
             d="M 0,0 C 10.804,11.47 19.656,20.867 29.944,31.785 11.089,29.924 -15.751,17.082 -20.042,4.691 c -2.805,-8.095 -1.313,-24.214 3.924,-27.392 19.23,-11.661 49.867,3.975 55.973,26.684 C 27.153,-7.566 14.424,-12.777 0,0" /></g><g
           transform="translate(1145.9072,1782.2588)"
           id="g28"><path
             id="path30"
             style="fill:#000000;fill-opacity:1;fill-rule:nonzero;stroke:none"
             d="m 0,0 c -14.145,-1.727 -30.614,-3.586 -32.883,-22.298 -1.482,-12.221 18.869,-26.748 34.88,-26.705 14.853,0.043 24.661,10.494 24.041,27.039 C 24.151,-7.962 16.209,1.979 0,0" /></g><g
           transform="translate(561.1967,2692.3125)"
           id="g32"><path
             id="path34"
             style="fill:#000000;fill-opacity:1;fill-rule:nonzero;stroke:none"
             d="m 0,0 c 0.239,-6.677 0.044,-13.369 0.115,-20.056 0.511,-48.823 0.53,-48.022 48.864,-48.817 18.97,-0.312 25.335,5.088 25.172,24.738 -0.878,105.627 -0.416,211.264 -0.419,316.897 0,106.971 0.137,213.942 -0.323,320.909 -0.029,6.75 -4.705,13.477 -7.218,20.216 C 60.325,609.27 52.436,605.845 48.907,599.853 8.714,531.587 -12.952,456.968 -15.096,378.456 -16.613,322.891 -17.283,267.28 -9.397,211.039 0.338,141.618 -2.526,70.43 0,0" /></g><g
           transform="translate(798.0358,1566.5547)"
           id="g36"><path
             id="path38"
             style="fill:#000000;fill-opacity:1;fill-rule:nonzero;stroke:none"
             d="m 0,0 c -14.886,-13.935 -26.455,-15.646 -41.974,-3.074 -20.822,16.869 -36.499,37.374 -40.694,64.478 -7.184,46.408 21.744,73.465 56.449,87.98 18.766,7.848 44.154,-15.345 45.96,-40.987 C 20.586,96.428 19.885,84.35 19.885,66.684 21.324,46.014 21.709,20.325 0,0 m 2305.197,663.994 c -4.189,-45.393 -24.611,-91.309 -46.222,-132.566 -27.607,-52.701 -60.283,-103.66 -97.132,-150.351 -37.787,-47.879 -82.575,-90.378 -125.915,-133.613 -8.728,-8.707 -24.351,-12.66 -37.394,-14.458 -32.829,-4.522 -66.86,-2.96 -98.794,-10.597 -32.579,-7.788 -63.827,-22.348 -94.459,-36.536 -13.946,-6.457 -24.314,-5.944 -34.33,3.76 -17.514,16.964 -36.942,27.659 -62.347,26.789 -8.16,-0.278 -17.136,3.252 -24.645,7.15 -62.85,32.626 -127.287,33.942 -193.157,10.879 -44.431,-15.557 -88.313,-32.968 -133.427,-46.19 -25.688,-7.53 -53.311,-11.156 -80.144,-11.589 -84.245,-1.365 -168.527,-0.399 -252.794,-0.288 -6.676,0.009 -14.569,-1.836 -19.776,1.03 -10.923,6.01 -28.961,14.934 -28.67,22.032 0.532,13.051 9.175,29.618 19.787,37.685 30.9,23.487 62.48,44.756 70.288,86.932 1.429,7.72 8.285,15.372 14.439,21.134 46.406,43.462 80.459,95.51 106.378,153.011 4.94,10.956 5.193,24.026 7.376,34.971 -21.524,-1.491 -38.383,-1.892 -55.032,-3.972 -32.843,-4.103 -65.588,-9.018 -98.338,-13.829 -21.595,-3.174 -43.045,-7.492 -64.713,-9.978 -29.624,-3.396 -59.513,-4.612 -89.066,-8.466 -30.808,-4.018 -61.324,-10.232 -92.02,-15.155 -19.61,-3.143 -39.237,-6.619 -58.997,-8.303 -39.664,-3.385 -79.449,-5.341 -119.127,-8.597 -8.993,-0.737 -20.126,-1.874 -25.923,-7.395 -5.47,-5.208 -9.08,-17.975 -6.441,-24.604 2.957,-7.431 13.378,-15.798 21.365,-16.72 93.175,-10.771 186.237,-22.09 280.582,-17.633 52.036,2.457 90.165,-23.365 112.379,-71.159 7.938,-17.081 1.193,-30.612 -17.509,-30.168 -34.38,0.82 -68.856,7.27 -103.006,5.582 -41.619,-2.053 -73.879,15.348 -107.138,36.078 -11.002,6.86 -28.638,5.906 -42.732,4.228 -16.108,-1.914 -20.242,-17.087 -15.197,-46.131 5.99,-0.915 12.31,-1.88 21.54,-3.29 -4.014,-7.103 -6.609,-12.974 -10.319,-18.025 -12.609,-17.169 -26.476,-33.472 -38.245,-51.181 -15.084,-22.694 -36.899,-33.772 -61.943,-40.9 -35.63,-10.144 -69.115,-27.786 -108.383,-24.755 -11.502,0.886 -24.465,-8.909 -35.786,-15.482 -29.781,-17.291 -58.943,-35.649 -88.593,-53.17 -3.735,-2.207 -8.939,-2.79 -13.435,-2.709 -45.991,0.818 -81.237,-18.664 -115.408,-49.433 -37.355,-33.637 -51.576,-74.7 -57.959,-120.825 -4.174,-30.155 -8.928,-60.857 -7.435,-91.015 1.984,-40.082 10.045,-79.844 15.023,-119.801 3.272,-26.25 5.155,-52.68 8.675,-78.892 3.781,-28.163 8.508,-56.208 13.263,-84.229 5.974,-35.192 12.045,-70.373 18.728,-105.436 6.072,-31.859 13.741,-63.422 19.405,-95.348 7.495,-42.247 13.591,-84.743 20.552,-127.089 4.502,-27.392 9.753,-54.66 14.147,-82.068 3.657,-22.803 7.195,-45.66 9.66,-68.614 5.865,-54.588 13.048,-109.136 16.039,-163.901 3.868,-70.814 -59.414,-128.966 -132.726,-120.519 -8.568,0.986 -16.387,7.817 -24.735,11.534 -8.937,3.978 -18.106,10.436 -27.139,10.373 -9.466,-0.065 -23.182,-4.15 -27.07,-11.002 -3.578,-6.301 0.709,-20.768 6.308,-27.871 15.436,-19.585 16.403,-40.001 9.255,-62.103 -11.429,-35.331 -21.95,-71.042 -35.51,-105.549 -4.271,-10.872 -15.568,-22.715 -26.3,-26.406 -14.489,-4.985 -20.876,9.571 -26.245,21.613 -14.084,31.594 -22.575,63.933 -28.577,98.567 -10.99,63.411 -10.76,127.275 -5.225,189.391 7.97,89.457 4.66,178.477 5.369,267.663 0.147,18.624 -6.203,38.042 -12.993,55.777 -7.294,19.05 -22.944,28.419 -44.656,26.328 -11.923,-1.151 -24.089,0.471 -36.083,-0.223 -19.256,-1.111 -28.866,-13.839 -24.318,-32.713 10.751,-44.615 23.17,-88.857 32.786,-133.705 6.211,-28.963 9.642,-58.636 12.551,-88.166 3.833,-38.914 7.661,-77.974 8.175,-117.017 0.344,-26.266 -3.141,-52.994 -8.341,-78.825 -7.328,-36.389 -17.108,-72.349 -27.33,-108.065 -4.143,-14.473 -12.212,-27.818 -21.959,-39.788 1.102,21.433 2.92,42.857 3.166,64.301 0.757,65.881 -19.729,125.078 -54.606,180.693 -15.264,24.342 -24.671,52.34 -36.978,78.566 -3.084,6.574 -5.653,14.487 -10.917,18.751 -25.532,20.693 -26.743,48.219 -26.335,77.884 0.251,18.26 -4.331,36.829 -8.478,54.861 -11.303,49.171 -22.676,98.356 -35.583,147.122 -19.638,74.195 -25.06,149.995 -18.468,225.57 3.635,41.66 20.35,82.252 45.836,117.385 9.551,13.165 18.361,14.601 32.976,3.47 43.061,-32.791 32.678,-75.119 24.597,-118.972 38.546,-10.859 54.071,-45.537 75.271,-74.8 17.903,-24.71 39.58,-45.243 72.891,-40.258 11.695,1.752 26.04,9.314 32.441,18.775 25.775,38.105 28.496,80.587 2.843,118.386 -23.349,34.407 -53.178,64.647 -81.859,95.113 -16.09,17.091 -29.787,33.749 -30.214,58.542 -0.096,5.524 -3.911,11.195 -6.716,16.421 -10.641,19.837 -8.097,29.559 11.613,40.151 11.055,5.939 22.561,11.03 33.739,16.744 17.12,8.752 22.694,25.107 13.87,41.637 -9.319,17.452 -22.777,11.73 -36.161,5.875 -24.911,-10.898 -50.331,-20.756 -74.67,-32.805 -22.536,-11.156 -44.961,-23.118 -65.616,-37.365 -40.939,-28.241 -97.703,-5.49 -105.797,43.635 -2.11,12.81 13.936,29.451 29.914,31.742 17.733,2.541 35.421,5.464 53.052,8.653 13.668,2.473 17.875,12.462 18.489,24.942 0.703,14.29 -4.669,26.413 -18.887,28.914 -37.789,6.645 -74.607,7.134 -102.783,-26.25 -15.249,-18.065 -33.779,-31.496 -59.119,-26.425 -32.922,6.588 -68.597,50.948 -67.568,85.943 1.483,50.413 4.922,100.78 8.111,151.131 1.226,19.369 -3.688,37.725 -18.204,48.869 -38.033,29.204 -33.843,64.693 -18.4,102.03 9.075,21.943 19.542,43.628 32.07,63.757 22.745,36.543 60.34,50.768 99.863,60.123 30.9,7.315 62.208,12.9 93.288,19.473 18.793,3.974 37.37,10.834 56.278,11.797 15.101,0.767 33.135,-1.393 45.383,-9.248 40.056,-25.69 85.119,-31.884 134.318,-39.701 -5.124,-7.749 -8.256,-14.504 -13.153,-19.541 -21.442,-22.056 -43.08,-43.943 -65.239,-65.276 -32.496,-31.283 -57.987,-67.388 -77.274,-108.07 -14.15,-29.84 -2.353,-66.049 33.461,-88.452 17.311,-10.83 39.75,-13.107 58.313,-22.371 22.258,-11.11 46.329,-22.118 63.346,-39.357 24.168,-24.484 49.719,-37.094 83.641,-32.919 16.461,2.028 25.332,-7.419 36.478,-18.741 20.151,-20.473 27.658,-42.556 24.796,-70.227 -1.353,-13.05 0.976,-27.768 17.086,-29.47 17.342,-1.832 29.01,11.613 30.216,26.312 2.897,35.363 9.479,72.404 -24.377,99.98 -14.853,12.095 -14.168,26.951 -3.343,44.13 17.246,27.365 34.935,55.378 46.044,85.477 19.096,51.744 5.933,80.791 -45.541,97.641 -16.948,5.548 -33.199,13.802 -48.815,22.525 -5.423,3.03 -10.318,10.989 -10.892,17.122 -0.313,3.354 8.368,8.862 13.919,11.231 27.534,11.742 55.148,23.388 83.249,33.656 8.384,3.063 18.941,-0.077 27.593,2.58 9.255,2.846 21.339,7.315 24.824,14.6 2.679,5.597 -3.7,20.47 -10.209,24.496 -13.463,8.324 -29.53,12.69 -44.881,17.576 -5.462,1.738 -11.962,-0.017 -17.965,0.292 -50.402,2.595 -100.787,5.553 -151.203,7.765 -10.845,0.476 -15.405,5.701 -13.138,14.917 4.719,19.174 9.422,38.615 16.948,56.779 11.872,28.65 27.933,55.655 38.572,84.694 6.438,17.574 7.437,37.617 8.158,56.652 0.534,14.104 5.163,19.829 18.866,18.013 30.768,-4.078 61.533,-8.19 92.277,-12.441 4.61,-0.638 9.064,-2.802 13.659,-3.072 45.688,-2.691 91.363,-5.945 137.092,-7.404 42.097,-1.346 84.517,-3.738 126.326,-0.164 57.55,4.922 112.659,19.527 165.345,46.318 43.203,21.968 80.838,49.914 117.611,80.381 19.728,16.344 42.045,26.289 69.382,25.165 87.153,-3.587 174.356,-6.44 261.568,-7.891 24.278,-0.404 48.892,3.712 72.937,8.051 56.586,10.209 114.196,16.736 166.768,42.887 50.934,25.338 102.175,50.06 153.085,75.445 51.948,25.901 102.833,23.754 155.506,0.061 49.189,-22.127 83.443,-58.807 109.201,-103.782 7.388,-12.898 9.389,-32.839 5.625,-47.427 -11.577,-44.878 -27.086,-88.746 -41.173,-132.974 -11.806,-37.06 -4.798,-59.775 24.073,-85.695 19.882,-17.849 39.116,-36.615 56.981,-56.465 24.022,-26.689 52.155,-35.635 86.518,-25.595 3.08,0.9 6.357,1.129 8.199,1.44 5.303,-8.819 8.228,-20.322 14.93,-23.29 10.212,-4.521 23.2,-4.472 34.619,-3.112 2.239,0.267 3.744,15.299 3.794,23.53 0.09,15.303 -3.753,31.094 -1.05,45.777 2.467,13.404 8.478,28.814 18.12,37.713 23.881,22.048 50.301,41.462 76.524,60.822 22.33,16.488 26.919,34.705 13.123,62.255 -34.713,69.308 -69.276,138.69 -104.376,207.801 -7.335,14.444 -5.328,25.426 7.669,34.576 19.24,13.541 38.817,24.029 64.171,22.561 66.355,-3.84 132.82,-5.758 199.229,-8.735 16.456,-0.739 28.427,5.009 35.805,20.152 9.234,18.956 0.622,35.645 -20.299,37.66 -9.284,0.893 -18.712,0.282 -28.072,0.386 -23.637,0.261 -34.612,10.19 -35.064,33.557 -0.53,27.409 -0.712,54.865 0.298,82.251 1.399,37.871 47.257,88.447 83.655,91.009 7.062,0.497 17.737,-7.151 21.796,-13.984 32.193,-54.178 59.173,-110.595 81.681,-169.886 25.233,-66.472 23.586,-134.677 17.425,-201.421 m -4.155,-641.272 c -0.286,-8.289 -4.437,-16.448 -7.302,-26.187 -17.748,11.782 -23.238,59.923 -8.513,71.172 2.028,1.548 12.199,-2.36 12.602,-4.751 2.229,-13.244 3.673,-26.835 3.213,-40.234 m -170.926,-456.548 c -11.07,-48.252 -28.835,-95.672 -23.682,-146.673 0.358,-3.563 -1.256,-7.325 -2.197,-12.294 -18.33,7.257 -20.113,21.445 -20.136,36.273 -0.063,40.743 -2.019,81.633 0.774,122.19 3.157,45.796 -9.706,86.275 -29.967,126.1 -24.279,47.722 -47.212,96.141 -70.2,144.509 -7.632,16.06 -8.413,32.018 5.712,46.08 17.635,17.558 45.685,25.749 63.869,15.626 45.721,-25.455 86.474,-55.958 97.549,-111.715 2.174,-10.934 2.006,-22.33 2.977,-33.506 5.565,-64.041 -10.578,-125.051 -24.699,-186.59 m -127.49,66.657 c -2.938,-40.754 -9.436,-81.253 -14.4,-121.86 -0.321,-2.634 -1.462,-5.193 -1.608,-7.821 -2.624,-47.668 -4.106,-95.426 -8.022,-142.986 -3.356,-40.738 -10.204,-81.184 -14.079,-121.893 -2.079,-21.822 -0.741,-43.951 -1.803,-65.9 -0.362,-7.45 -3.354,-14.772 -5.144,-22.154 -3.205,0.652 -6.409,1.304 -9.613,1.954 0,8.35 1.226,16.934 -0.319,24.987 -1.812,9.441 -4.661,19.243 -9.557,27.389 -6.179,10.285 -17.609,17.552 -28.568,10.672 -8.462,-5.311 -17.31,-16.296 -18.53,-25.723 -4.426,-34.16 -6.264,-68.699 -7.99,-103.152 -1.21,-24.156 -26.351,-52.872 -52.508,-57.843 -31.428,-5.973 -53.054,6.673 -64.519,36.353 -8.214,21.265 2.031,36.347 15.561,49.97 16.959,17.072 35.935,32.869 39.936,58.197 3.195,20.247 6.978,41.084 5.368,61.25 -2.837,35.606 7.775,66.507 23.952,97.006 27.553,51.955 38.661,107.525 41.49,166.454 3.96,82.544 -17.526,159.24 -41.514,236.429 -8.734,28.102 -11.381,58.296 -14.816,87.766 -2.074,17.801 1.068,36.172 -0.541,54.07 -6.501,72.215 13.57,137.248 46.653,200.801 27.359,52.557 71.57,88.912 111.752,129.328 5.661,5.693 20.981,7.627 28.86,4.288 40.157,-17.021 74.457,-44.171 94.754,-82.199 24.937,-46.718 17.719,-96.442 -2.047,-144.309 -1.505,-3.641 -3.533,-7.066 -5.315,-10.593 -14.435,-28.585 -31.01,-32.083 -54.69,-11.074 -8.987,7.975 -17.12,16.902 -25.799,25.231 -23.889,22.924 -53.669,24.134 -82.469,16.857 -25.287,-6.39 -36.386,-31.655 -44.912,-53.18 -26.566,-67.079 -11.185,-128.326 39.543,-177.25 41.089,-39.629 65.002,-84.126 60.894,-141.065 M 1753.468,-857.42 c -0.025,-34.674 -0.03,-34.674 -38.358,-38.306 v 25.675 c 0,266.84 0.065,533.68 -0.274,800.519 -0.01,8.996 -4.078,17.989 -6.256,26.983 -6.122,-6.99 -14.764,-12.996 -17.944,-21.135 -16.616,-42.519 -34.527,-84.841 -46.62,-128.71 -8.15,-29.574 -9.945,-61.58 -10.196,-92.533 -0.971,-119.698 1.016,-239.428 -0.867,-359.102 -0.49,-31.299 -9.714,-62.744 -17.146,-93.587 -13.125,-54.465 -34.974,-105.521 -65.547,-152.614 -4.003,-6.166 -9.673,-11.25 -14.572,-16.835 -1.984,0.618 -3.97,1.238 -5.954,1.857 v 24.711 c -0.01,278.208 -0.16,556.417 0.1,834.624 0.057,62.01 26.575,111.363 79.331,143.376 33.14,20.11 69.524,35.011 104.954,51.147 16.395,7.465 30.779,-5.246 31.108,-26.99 0.543,-36.106 -0.686,-72.258 0.562,-108.33 1.864,-53.773 3.121,-107.711 8.622,-161.169 4.458,-43.324 15.266,-85.965 22.321,-129.062 3.955,-24.161 5.758,-48.662 8.994,-72.951 2.271,-17.037 5.296,-33.974 8.033,-50.949 4.945,-30.662 10.499,-61.241 14.724,-92.002 3.869,-28.175 7.876,-56.484 9.006,-84.847 1.49,-37.388 1.051,-74.918 -0.431,-112.313 -0.368,-9.294 -5.559,-21.255 -12.606,-26.938 -33.013,-26.628 -45.42,-62.767 -50.73,-102.435 -1.671,-12.481 -0.245,-25.378 -0.254,-38.084 m -1963.72,-422.181 c -5.54,10.412 -9.854,17.173 -12.899,24.463 -14.011,33.546 -27.191,67.447 -41.709,100.767 -5.236,12.017 -13.846,22.517 -20.096,34.149 -9.739,18.132 -8.686,36.557 4.206,52.295 5.982,7.304 21.2,17.361 23.618,15.424 8.846,-7.097 18.608,-18.205 19.767,-28.712 2.833,-25.69 3.184,-52.103 0.579,-77.826 -3.042,-30.054 7.941,-52.62 27.567,-73.559 16.24,-17.328 15.645,-19.088 -1.033,-47.001 M -7.645,726.432 c -48.625,124.552 -13.41,247.133 -27.314,365.897 l -6.434,-7.011 c 22.924,38.277 45.63,38.147 68.117,-0.387 l -6.525,7.258 C 19.926,972.431 40.612,851.066 -7.645,726.432 m -347.359,717.426 c 0.471,42.045 7.275,84.265 14.196,125.918 6.617,39.812 15.333,79.472 26.298,118.302 9.548,33.813 22.459,66.808 35.81,99.377 17.328,42.269 35.843,84.098 55.389,125.388 6.348,13.41 18.03,24.204 26.355,36.803 6.442,9.75 17.287,21.191 16.086,30.594 -5.008,39.208 19.142,65.244 38.018,93.504 12.869,19.266 26.076,39.76 43.728,54.019 23.373,18.881 51.674,31.533 77.03,48.128 23.209,15.19 46.401,30.762 67.681,48.472 40.391,33.613 78.922,70.832 132.584,81.063 26.457,5.045 54.367,3.057 81.593,2.632 3.084,-0.049 8.431,-10.556 8.592,-16.329 0.867,-30.74 0.356,-61.517 0.435,-92.282 0.114,-43.469 1.379,-86.967 0.246,-130.402 -1.593,-61.096 -3.86,-122.218 -7.825,-183.199 -3.991,-61.392 -9.698,-122.7 -16.04,-183.899 -3.741,-36.083 -10.453,-71.85 -15.301,-107.828 -3.262,-24.218 -6.034,-48.518 -8.246,-72.853 -3.232,-35.61 -5.114,-71.35 -8.772,-106.912 -3.851,-37.417 -9.095,-74.695 -13.806,-112.023 -0.332,-2.627 -1.737,-5.143 -1.924,-7.761 -2.734,-38.333 -4.492,-76.759 -8.228,-114.991 -3.595,-36.756 -9.185,-73.317 -13.973,-109.953 -0.342,-2.629 -1.732,-5.15 -1.897,-7.768 -2.811,-45.019 -5.103,-90.078 -8.378,-135.062 -1.969,-27.029 -6.518,-53.896 -7.913,-80.939 -1.394,-27.074 -0.306,-54.278 -0.306,-81.426 -1.96,-1.322 -3.921,-2.644 -5.881,-3.965 -8.578,8.937 -20.067,16.457 -25.229,27.058 -22.994,47.226 -45.888,94.396 -39.792,150.064 4.51,41.193 -4.479,80.29 -25.999,116.771 -10.322,17.497 -17.479,37.327 -23.035,56.959 -2.521,8.911 -0.47,21.599 4.369,29.654 16.461,27.403 32.255,54.333 39.854,86.267 4.786,20.118 18.366,37.974 25.869,57.657 13.612,35.706 21.987,72.403 19.558,111.347 -1.705,27.309 1.938,55.018 -0.641,82.185 -2.863,30.168 -9.328,60.08 -15.605,89.813 -7.13,33.771 -21.118,67.082 -21.997,100.857 -0.637,24.477 14.61,49.62 24.055,73.968 3.27,8.431 11.38,14.865 15.549,23.088 8.2,16.168 8.742,32.128 -5.831,45.721 -15.139,14.116 -19.966,31.144 -20.222,52.016 -0.374,30.389 -6.673,60.718 -6.811,91.088 -0.055,12.444 9.215,24.997 14.52,37.382 5.509,12.869 12.038,25.344 16.795,38.472 2.9,8.002 4.501,16.916 4.461,25.41 -0.04,7.898 -0.489,19.246 -5.35,22.809 -6.223,4.561 -18.497,6.151 -25.543,3.057 -10.42,-4.577 -20.876,-12.84 -27.189,-22.289 -18.376,-27.496 -29.67,-57.493 -28.63,-91.836 0.398,-13.131 -4.232,-27.079 -9.28,-39.562 -8.259,-20.423 -8.344,-37.913 6.726,-55.861 6.545,-7.794 10.536,-19.941 10.921,-30.289 1.213,-32.716 0.539,-65.528 -0.317,-98.279 -0.16,-6.172 -4.861,-17.538 -6.884,-17.411 -7.907,0.505 -16.221,3.626 -23.088,7.87 -3.89,2.407 -4.87,9.157 -7.836,13.487 -15.077,22.004 -32.961,22.052 -49.95,1.872 -16.306,-19.371 -36.365,-35.954 -50.452,-56.697 -10.668,-15.706 -17.756,-35.54 -20.61,-54.417 -3.462,-22.88 -2.739,-46.906 -0.105,-70.013 1.808,-15.867 6.491,-33.686 15.959,-45.944 22.133,-28.656 45.428,-53.745 87.708,-58.886 20.942,-2.547 43.363,-28.002 56.973,-48.498 28.997,-43.669 13.763,-89.545 -4.219,-133.501 -2.361,-5.775 -7.88,-12.241 -13.475,-14.395 -38.107,-14.675 -55.871,-46.724 -72.675,-80.586 -14.733,-29.685 -33.138,-57.614 -46.889,-87.704 -19.424,-42.503 -31.737,-87.402 -32.127,-134.626 -0.428,-52.157 4.108,-104.727 -1.07,-156.361 -4.475,-44.609 -6.174,-91.513 -34.89,-130.906 -21.329,-29.258 -50.464,-42.235 -84.597,-46.435 -14.163,-1.741 -23.143,5.646 -23.383,20.731 -0.245,15.377 1.526,30.899 0.014,46.118 -4.312,43.38 -9.848,86.638 -14.891,129.946 -0.383,3.309 -1.402,6.752 -0.883,9.929 6.974,42.54 -11.254,80.57 -20.393,120.393 -8.552,37.258 -13.275,75.397 -19.556,113.172 -3.252,19.569 -6.113,39.204 -9.35,58.777 -7.539,45.595 -17.877,90.919 -22.143,136.815 -5.467,58.812 -8.609,118.104 -7.945,177.135 m 700.126,19.964 c 7.284,47.693 33.415,90.241 58.328,131.505 3.447,-0.731 6.895,-1.464 10.341,-2.195 0,-29.348 1.247,-58.762 -0.254,-88.034 -3.36,-65.565 -32.692,-123.912 -53.448,-184.614 -0.994,-2.906 -3.127,-5.422 -4.73,-8.122 -2.207,0.136 -4.413,0.268 -6.62,0.403 -10.655,49.908 -11.184,101.507 -3.617,151.057 m 1218.652,-30.453 c -2.774,-1.252 -5.547,-2.503 -8.321,-3.754 -11.918,5.604 -19.869,14.036 -15.657,28.658 0.774,2.685 7.027,3.789 10.752,5.622 z m 6.449,-30.448 c 16.39,-18.304 29.247,-31.483 40.588,-45.858 5.159,-6.54 8.888,-15.125 10.568,-23.334 7.489,-36.585 -1.321,-105.931 -19.088,-147.437 -44.362,68.192 -28.379,140.682 -32.068,216.629 m -146.592,478.743 c -20.314,45.992 -28.399,94.3 -19.96,142.517 7.945,45.391 37.751,80.029 77.295,104.521 39.181,24.268 82.324,33.971 128.243,36.688 40.781,2.412 81.537,8.063 121.823,15.066 26.097,4.537 51.326,14.073 76.522,21.25 19.172,-55.542 39.434,-111.099 57.299,-167.416 8.159,-25.721 12.237,-52.827 16.956,-79.518 3.688,-20.847 -5.261,-38.684 -20.325,-51.775 -15.938,-13.851 -33.934,-25.445 -51.624,-37.13 -15.253,-10.075 -28.88,-4.574 -37.818,9.211 -7.391,11.398 -14.035,24.281 -16.938,37.408 -9.557,43.192 -34.309,78.791 -54.689,116.689 -5.187,9.641 -6.799,21.213 -9.975,31.918 -0.943,3.172 -0.592,7.484 -2.61,9.447 -9.034,8.795 -18.71,16.931 -28.156,25.304 -5.852,-9.679 -15.955,-19.001 -16.805,-29.101 -3.292,-39.121 2.117,-76.075 15.186,-114.946 18.523,-55.096 59.238,-90.337 92.671,-132.528 21.7,-27.385 34.322,-57.63 35.41,-93.11 0.583,-19.02 3.233,-38.395 8.077,-56.787 15.635,-59.358 3.839,-119.612 7.215,-179.331 0.689,-12.183 -3.241,-24.785 -6.125,-36.937 -1.166,-4.909 -4.7,-9.582 -8.074,-13.588 -22.022,-26.156 -24.724,-96.504 -4.867,-123.367 12.707,-17.19 27.667,-27.417 50.693,-25.581 33.848,2.701 63.009,-8.799 84.462,-35.934 15.399,-19.48 17.073,-42.854 5.657,-59.309 -20.258,-29.198 -38.934,-36.474 -67.495,-29.072 -17.953,4.654 -30.605,12.66 -39.59,30.055 -3.9,7.551 -18.313,13.661 -27.781,13.429 -14.867,-0.364 -29.424,-7.928 -44.446,-9.865 -6.976,-0.9 -19.256,2.291 -21.319,7.028 -7.059,16.217 -14.755,33.901 -14.919,51.092 -1.195,126.342 2.461,252.808 -2.019,379.001 -1.974,55.618 -23.975,108.477 -64.014,151.203 -18.519,19.763 -36.63,40.292 -51.917,62.541 -7.306,10.635 -9.82,25.949 -10.67,39.387 -3.573,56.438 -5.827,112.965 -8.274,169.471 -0.699,16.141 -8.606,25.008 -24.54,25.681 -14.756,0.625 -31.701,-14.282 -33.024,-29.603 -1.145,-13.278 0.295,-26.768 -0.653,-40.075 -1.789,-25.109 -4.466,-50.156 -6.785,-75.228 -2.048,-22.143 -2.151,-43.31 11.218,-63.428 9.808,-14.759 14.435,-32.886 23.653,-48.132 11.895,-19.674 26.94,-37.44 38.908,-57.077 6.511,-10.683 11.534,-23.191 13.588,-35.483 4.015,-24.042 5.651,-48.491 7.861,-72.809 0.46,-5.068 -0.865,-10.297 -2.092,-22.92 -13.011,11.789 -22.848,18.635 -30.081,27.584 -54.272,67.143 -109.736,133.381 -145.152,213.559 M 1871.368,422.896 c -1.903,-2.267 -3.806,-4.534 -5.709,-6.801 -24.264,13.688 -50.305,25.041 -72.267,41.753 -19.836,15.094 -18.967,56.697 -0.85,74.076 4.391,4.211 17.101,5.501 22.271,2.243 41.046,-25.87 52.242,-67.071 56.555,-111.271 m 102.891,493.313 c 5.973,-22.079 -1.606,-44.538 -19.456,-51.556 -40.899,-16.085 -83.395,-20.521 -126.645,-10.536 -21.193,4.893 -42.161,10.773 -63.162,16.453 -2.951,0.797 -5.518,3.013 -14.518,8.129 24.962,10.998 44.603,19.4 64.033,28.262 39.401,17.972 78.996,33.687 123.959,30.445 16.787,-1.212 30.902,-3.127 35.789,-21.197 M 498.442,2149.514 c -1.673,-25.221 33.943,-36.02 24.584,-64.945 -32.013,14.255 -44.597,45.487 -24.584,64.945 M 2402.543,226.522 c -22.664,68.263 -2.084,128.361 51.335,194.078 215.552,265.171 122.181,637.985 -192.491,794.501 4.941,256.379 -111.729,492.76 -131.657,751.571 -24.851,322.776 -307.931,552.772 -548.445,492.068 -204.323,-51.571 -308.721,-353.541 -222.86,-659.782 61.013,-217.613 117.257,-434.555 79.983,-690.63 -310.259,-118.729 -660.447,-70.664 -969.171,-198.584 88.16,243.509 41.6,512.266 124.332,751.9 133.851,387.702 -6.362,651.688 -323.234,859.352 h -62.09 c -88.891,-136.334 -245.539,-216.248 -310.312,-372.664 0.751,-1.031 0.567,-3.249 0.005,-5.947 -0.02,-0.024 -0.042,-0.046 -0.062,-0.069 -0.443,1.981 -0.683,3.752 -1.213,5.825 -36.861,-3.677 -56.902,-23.611 -59.651,-60.254 4.37,-1.402 8.552,-2.608 12.457,-3.524 -1.371,-1.741 -2.693,-3.497 -4.054,-5.243 -2.911,1.955 -5.827,3.891 -8.738,5.847 -273.398,-277.062 -284.806,-624.906 -230.993,-972.478 25.425,-164.208 44.927,-322.708 32.86,-490.943 -93.52,-78.749 -187.148,-157.59 -277.356,-233.551 51.21,-300.247 -28.511,-634.72 266.824,-848.391 l 6.309,-82.016 c -17.588,-149.458 -44.858,-300.507 -31.906,-448.028 15.623,-177.947 -7.426,-420.505 295.779,-399.476 -0.851,-1.834 -1.567,-3.66 -2.459,-5.496 l 3.613,5.549 c 49.525,-53.328 68.622,-196.149 180.716,-65.454 1.17,0.593 2.243,1.138 3.397,1.723 0,0 20.21,10.258 28.945,14.691 618.84,278.23 592.81,499.842 461.693,982.883 -32.78,120.768 -81.783,231.141 -27.556,332.401 193,107.121 396.708,78.343 582.4,138.76 -17.655,0.824 -35.381,4.839 -52.659,9.05 -7.345,1.791 -14.704,3.418 -22.076,4.893 -135.865,18.035 -268.484,14.79 -404.335,-36.273 -54.444,-20.465 -141.307,-53.247 -179.665,-3.112 -16.62,16.737 -27.402,39.822 -22.531,58.958 5.253,20.639 24.003,27.746 41.493,33.51 26.447,8.716 53.989,14.123 80.421,22.884 63.053,20.898 126.564,40.818 188.289,65.191 47.867,18.902 94.94,18.599 141.65,3.228 23.289,-7.664 42.28,-27.774 65.339,-36.88 32.168,-12.707 64.015,-26.352 96.703,-37.633 l 11.024,0.973 c 114.825,-38.409 241.903,-26.136 357.666,-47.588 75.87,-343.721 -73.736,-676.586 -28.396,-996.35 549.113,-261.66 763.849,-223.675 1038.557,165.086 l -4.222,-5.998 c 69.414,32.987 82.049,97.531 60.553,156.274 -101.659,277.8 -1.679,576.453 -94.211,855.168" /></g><g
           transform="translate(2222.4526,2094.917)"
           id="g40"><path
             id="path42"
             style="fill:#000000;fill-opacity:1;fill-rule:nonzero;stroke:none"
             d="m 0,0 c -7.31,2.728 -14.258,6.432 -24.819,11.272 7.121,8.822 12.137,16.28 18.371,22.523 16.396,16.416 24.668,35.307 24.168,59.051 -0.85,40.385 -17.771,52.668 -56.145,38.748 -27.44,-9.952 -55.364,-18.808 -82.114,-30.367 -35.152,-15.19 -66.71,-36.297 -90.484,-67.041 -3.853,-4.982 -7.19,-14.448 -4.941,-18.906 2.229,-4.422 11.777,-7.056 18.175,-7.168 44.083,-0.768 88.196,-0.122 132.261,-1.308 8.908,-0.24 17.658,-6.361 26.477,-9.769 -3.659,-9.272 -5.069,-20.604 -11.355,-27.477 -35.44,-38.737 -72.192,-76.264 -108.209,-114.476 -23.265,-24.683 -49.443,-41.215 -85.426,-39.06 -19.807,1.189 -36.927,-16.415 -36.047,-34.966 0.226,-4.791 5.886,-12.985 9.721,-13.397 56.097,-6.054 108.068,3.933 148.203,46.918 23.919,25.619 44.84,54.018 67.536,80.807 19.149,22.599 35.371,48.695 66.651,57.56 2.875,0.816 6.538,5.894 6.46,8.905 C 18.085,-22.892 18.444,-6.877 0,0" /></g><g
           transform="translate(638.2344,3341.0659)"
           id="g44"><path
             id="path46"
             style="fill:#000000;fill-opacity:1;fill-rule:nonzero;stroke:none"
             d="m 0,0 c 3.276,0.413 7.861,2.251 9.149,4.881 17.675,36.154 40.056,70.637 35.593,114.098 -1.963,19.125 -0.173,38.642 0.014,57.98 0.122,12.555 5.78,19.579 19.043,20.833 23.681,2.238 25.955,6.811 16.467,34.615 C 71.604,227.096 63.535,221.985 55.31,217.141 40.56,208.456 26.568,197.166 10.631,192.251 -1.153,188.617 -4.021,184.431 -4.022,173.625 -4.032,123.604 -4.533,73.587 -4.828,23.567 -4.861,18.234 -5.207,12.825 -4.425,7.597 -4,4.752 -1.207,-0.151 0,0" /></g><g
           transform="translate(5242.2949,3846.6016)"
           id="g48" /><g
           transform="translate(4545.3242,3891.5708)"
           id="g52" /><g
           transform="translate(4206.376,909.6035)"
           id="g56" /><g
           transform="translate(3859.4932,876.5918)"
           id="g60" /><g
           transform="translate(3879.0068,894.3867)"
           id="g64" /><g
           transform="translate(5828.791,572.0059)"
           id="g68" /><g
           transform="translate(4465.0454,481.4492)"
           id="g72" /><g
           transform="translate(4604.063,694.0576)"
           id="g76" /><g
           transform="translate(7695.3535,2279.5391)"
           id="g80" /><g
           transform="translate(11083.707,2830.1255)"
           id="g84" /><g
           transform="translate(13519.343,701.9687)"
           id="g88" /></g></g></g></svg>
